# xmcd CD database file
#
# Track frame offsets:
#	182
#	13560
#	23760
#	38645
#	52142
#	63840
#	78002
#	92407
#	103362
#	116687
#	131670
#	145092
#	162517
#	176620
#	189022
#	207667
#	221870
#	235297
#	246400
#	269075
#	282617
#	296260
#	310472
#	326610
#
# Disc length: 4530 seconds
#
# Revision: 0
# Processed by: cddbd v1.4PL0 Copyright (c) Steve Scherf et al.
# Submitted via: CDex 1.50beta9
#
DISCID=6c11b018
DTITLE=Teddy Wilson - The Complete Verve Recordings Of The Teddy Wilson Trio, Disc 1
DYEAR=1954
DGENRE=Jazz
TTITLE0=The One I Love (Belongs To Someone Else)
TTITLE1=Darn That Dream
TTITLE2=Tea For Two
TTITLE3=Lady Be Good
TTITLE4=Emaline
TTITLE5=Tenderly
TTITLE6=Everything That Happens To Me
TTITLE7=Liza
TTITLE8=Nice Work If You Can Get It
TTITLE9=Air Mail Special
TTITLE10=Night And Day
TTITLE11=Cheek To Cheek
TTITLE12=East Of The Sun
TTITLE13=Autumn In New York
TTITLE14=Isn't It Romantic?
TTITLE15=You Go To My Head
TTITLE16=Unforgettable
TTITLE17=Almost Like Being In Love
TTITLE18=Lover
TTITLE19=If Dreams Come True
TTITLE20=Don't Be That Way
TTITLE21=Stompin' At The Savoy
TTITLE22=Love Is Here To Stay
TTITLE23=Sweet And Lovely
EXTD=YEAR: 1954
EXTT0=
EXTT1=
EXTT2=
EXTT3=
EXTT4=
EXTT5=
EXTT6=
EXTT7=
EXTT8=
EXTT9=
EXTT10=
EXTT11=
EXTT12=
EXTT13=
EXTT14=
EXTT15=
EXTT16=
EXTT17=
EXTT18=
EXTT19=
EXTT20=
EXTT21=
EXTT22=
EXTT23=
PLAYORDER=
